<svg width="132" height="26" viewBox="0 0 132 26" fill="none" xmlns="http://www.w3.org/2000/svg">
<path d="M105.091 14.45H98.5322L97.4808 17.55H93L99.3582 0H104.315L110.673 17.55H106.142L105.091 14.45ZM103.989 11.15L101.811 4.725L99.6586 11.15H103.989Z" fill="url(#paint0_linear_3707_70)"/>
<path d="M116.889 5.925C117.389 5.15833 118.015 4.55833 118.766 4.125C119.517 3.675 120.351 3.45 121.269 3.45V7.975H120.093C119.025 7.975 118.224 8.20833 117.69 8.675C117.156 9.125 116.889 9.925 116.889 11.075V17.55H112.608V3.6H116.889V5.925Z" fill="url(#paint1_linear_3707_70)"/>
<path d="M131.1 13.925V17.55H128.922C127.37 17.55 126.161 17.175 125.293 16.425C124.425 15.6583 123.991 14.4167 123.991 12.7V7.15H122.289V3.6H123.991V0.2H128.272V3.6H131.075V7.15H128.272V12.75C128.272 13.1667 128.372 13.4667 128.572 13.65C128.772 13.8333 129.106 13.925 129.573 13.925H131.1Z" fill="url(#paint2_linear_3707_70)"/>
<path d="M13.3923 6.6C13.3923 7.61667 13.1587 8.55 12.6914 9.4C12.2242 10.2333 11.5066 10.9083 10.5386 11.425C9.57073 11.9417 8.36917 12.2 6.93398 12.2H4.28054V18.5H0V0.95H6.93398C8.33579 0.95 9.52066 1.19167 10.4886 1.675C11.4565 2.15833 12.1824 2.825 12.6664 3.675C13.1504 4.525 13.3923 5.5 13.3923 6.6ZM6.60856 8.8C7.42628 8.8 8.03541 8.60833 8.43592 8.225C8.83644 7.84167 9.0367 7.3 9.0367 6.6C9.0367 5.9 8.83644 5.35833 8.43592 4.975C8.03541 4.59167 7.42628 4.4 6.60856 4.4H4.28054V8.8H6.60856Z" fill="white"/>
<path d="M21.3032 18.7C20.0849 18.7 19.0002 18.4917 18.049 18.075C17.0977 17.6583 16.3468 17.0917 15.796 16.375C15.2453 15.6417 14.9366 14.825 14.8698 13.925H19.1003C19.1504 14.4083 19.3757 14.8 19.7762 15.1C20.1767 15.4 20.669 15.55 21.2531 15.55C21.7871 15.55 22.196 15.45 22.4797 15.25C22.7801 15.0333 22.9303 14.7583 22.9303 14.425C22.9303 14.025 22.7217 13.7333 22.3045 13.55C21.8873 13.35 21.2114 13.1333 20.2768 12.9C19.2755 12.6667 18.4411 12.425 17.7736 12.175C17.1061 11.9083 16.5303 11.5 16.0464 10.95C15.5624 10.3833 15.3204 9.625 15.3204 8.675C15.3204 7.875 15.5374 7.15 15.9713 6.5C16.4219 5.83333 17.0727 5.30833 17.9238 4.925C18.7916 4.54167 19.8179 4.35 21.0028 4.35C22.7551 4.35 24.1318 4.78333 25.1331 5.65C26.1511 6.51667 26.7352 7.66667 26.8854 9.1H22.9303C22.8635 8.61667 22.6466 8.23333 22.2794 7.95C21.929 7.66667 21.4617 7.525 20.8776 7.525C20.377 7.525 19.9931 7.625 19.7261 7.825C19.4591 8.00833 19.3256 8.26667 19.3256 8.6C19.3256 9 19.5342 9.3 19.9514 9.5C20.3853 9.7 21.0528 9.9 21.954 10.1C22.9887 10.3667 23.8314 10.6333 24.4823 10.9C25.1331 11.15 25.7005 11.5667 26.1845 12.15C26.6851 12.7167 26.9438 13.4833 26.9605 14.45C26.9605 15.2667 26.7269 16 26.2596 16.65C25.809 17.2833 25.1498 17.7833 24.282 18.15C23.4309 18.5167 22.438 18.7 21.3032 18.7Z" fill="white"/>
<path d="M43.8478 4.55L35.0864 25.125H30.4805L33.6846 18.025L28.0023 4.55H32.7835L36.0126 13.275L39.2168 4.55H43.8478Z" fill="white"/>
<path d="M44.5446 11.525C44.5446 10.075 44.8366 8.80833 45.4207 7.725C46.0215 6.64167 46.8476 5.80833 47.8989 5.225C48.967 4.64167 50.1852 4.35 51.5537 4.35C53.3059 4.35 54.7662 4.80833 55.9343 5.725C57.1192 6.64167 57.8952 7.93333 58.2624 9.6H53.7065C53.3226 8.53333 52.58 8 51.4786 8C50.6942 8 50.0684 8.30833 49.6011 8.925C49.1339 9.525 48.9002 10.3917 48.9002 11.525C48.9002 12.6583 49.1339 13.5333 49.6011 14.15C50.0684 14.75 50.6942 15.05 51.4786 15.05C52.58 15.05 53.3226 14.5167 53.7065 13.45H58.2624C57.8952 15.0833 57.1192 16.3667 55.9343 17.3C54.7495 18.2333 53.2893 18.7 51.5537 18.7C50.1852 18.7 48.967 18.4083 47.8989 17.825C46.8476 17.2417 46.0215 16.4083 45.4207 15.325C44.8366 14.2417 44.5446 12.975 44.5446 11.525Z" fill="white"/>
<path d="M69.1382 4.4C70.7402 4.4 72.0252 4.93333 72.9931 6C73.9611 7.05 74.445 8.5 74.445 10.35V18.5H70.1895V10.925C70.1895 9.99167 69.9475 9.26667 69.4636 8.75C68.9796 8.23333 68.3288 7.975 67.511 7.975C66.6933 7.975 66.0425 8.23333 65.5585 8.75C65.0746 9.26667 64.8326 9.99167 64.8326 10.925V18.5H60.552V0H64.8326V6.425C65.2665 5.80833 65.8589 5.31667 66.6099 4.95C67.3609 4.58333 68.2036 4.4 69.1382 4.4Z" fill="white"/>
<path d="M83.7778 18.7C82.4094 18.7 81.1744 18.4083 80.073 17.825C78.9883 17.2417 78.1288 16.4083 77.4947 15.325C76.8772 14.2417 76.5685 12.975 76.5685 11.525C76.5685 10.0917 76.8856 8.83333 77.5197 7.75C78.1539 6.65 79.0217 5.80833 80.1231 5.225C81.2245 4.64167 82.4594 4.35 83.8279 4.35C85.1963 4.35 86.4313 4.64167 87.5327 5.225C88.6341 5.80833 89.5019 6.65 90.136 7.75C90.7702 8.83333 91.0873 10.0917 91.0873 11.525C91.0873 12.9583 90.7619 14.225 90.111 15.325C89.4769 16.4083 88.6007 17.2417 87.4826 17.825C86.3812 18.4083 85.1463 18.7 83.7778 18.7ZM83.7778 15C84.5955 15 85.2881 14.7 85.8555 14.1C86.4396 13.5 86.7316 12.6417 86.7316 11.525C86.7316 10.4083 86.4479 9.55 85.8805 8.95C85.3298 8.35 84.6456 8.05 83.8279 8.05C82.9935 8.05 82.3009 8.35 81.7502 8.95C81.1995 9.53333 80.9241 10.3917 80.9241 11.525C80.9241 12.6417 81.1911 13.5 81.7252 14.1C82.2759 14.7 82.9601 15 83.7778 15Z" fill="white"/>
<defs>
<linearGradient id="paint0_linear_3707_70" x1="125.385" y1="-8.08082e-07" x2="118.143" y2="23.2943" gradientUnits="userSpaceOnUse">
<stop stop-color="#B75CFF"/>
<stop offset="1" stop-color="#671AE4"/>
</linearGradient>
<linearGradient id="paint1_linear_3707_70" x1="125.385" y1="-8.08082e-07" x2="118.143" y2="23.2943" gradientUnits="userSpaceOnUse">
<stop stop-color="#B75CFF"/>
<stop offset="1" stop-color="#671AE4"/>
</linearGradient>
<linearGradient id="paint2_linear_3707_70" x1="125.385" y1="-8.08082e-07" x2="118.143" y2="23.2943" gradientUnits="userSpaceOnUse">
<stop stop-color="#B75CFF"/>
<stop offset="1" stop-color="#671AE4"/>
</linearGradient>
</defs>
</svg>
