<svg width="21" height="20" viewBox="0 0 21 20" fill="none" xmlns="http://www.w3.org/2000/svg">
<g clip-path="url(#clip0_2_107)">
<path d="M19.9995 17.293L16.1049 13.3984C15.9291 13.2227 15.6909 13.125 15.4409 13.125H14.8041C15.8823 11.7461 16.5229 10.0117 16.5229 8.125C16.5229 3.63672 12.8862 0 8.39789 0C3.90961 0 0.272888 3.63672 0.272888 8.125C0.272888 12.6133 3.90961 16.25 8.39789 16.25C10.2846 16.25 12.019 15.6094 13.3979 14.5312V15.168C13.3979 15.418 13.4955 15.6562 13.6713 15.832L17.5659 19.7266C17.933 20.0938 18.5268 20.0938 18.8901 19.7266L19.9955 18.6211C20.3627 18.2539 20.3627 17.6602 19.9995 17.293ZM8.39789 13.125C5.63617 13.125 3.39789 10.8906 3.39789 8.125C3.39789 5.36328 5.63226 3.125 8.39789 3.125C11.1596 3.125 13.3979 5.35938 13.3979 8.125C13.3979 10.8867 11.1635 13.125 8.39789 13.125Z" fill="white" fill-opacity="0.5"/>
</g>
<defs>
<clipPath id="clip0_2_107">
<rect width="20" height="20" fill="white" transform="translate(0.272888)"/>
</clipPath>
</defs>
</svg>
